<svg width="114" height="40" viewBox="0 0 114 40" fill="none" xmlns="http://www.w3.org/2000/svg">
<path d="M57.198 22.436C57.198 23.576 56.784 24.488 55.956 25.172C55.14 25.844 53.976 26.18 52.464 26.18C51.108 26.18 49.896 25.922 48.828 25.406V22.868C49.44 23.132 50.07 23.378 50.718 23.606C51.378 23.822 52.032 23.93 52.68 23.93C53.352 23.93 53.826 23.804 54.102 23.552C54.39 23.288 54.534 22.958 54.534 22.562C54.534 22.238 54.42 21.962 54.192 21.734C53.976 21.506 53.682 21.296 53.31 21.104C52.938 20.9 52.512 20.684 52.032 20.456C51.732 20.312 51.408 20.144 51.06 19.952C50.712 19.748 50.376 19.502 50.052 19.214C49.74 18.914 49.482 18.554 49.278 18.134C49.074 17.714 48.972 17.21 48.972 16.622C48.972 15.47 49.362 14.576 50.142 13.94C50.922 13.292 51.984 12.968 53.328 12.968C54 12.968 54.636 13.046 55.236 13.202C55.848 13.358 56.484 13.58 57.144 13.868L56.262 15.992C55.674 15.752 55.146 15.566 54.678 15.434C54.21 15.302 53.73 15.236 53.238 15.236C52.722 15.236 52.326 15.356 52.05 15.596C51.774 15.836 51.636 16.148 51.636 16.532C51.636 16.988 51.84 17.348 52.248 17.612C52.656 17.876 53.262 18.2 54.066 18.584C54.726 18.896 55.284 19.22 55.74 19.556C56.208 19.892 56.568 20.288 56.82 20.744C57.072 21.2 57.198 21.764 57.198 22.436ZM66.9321 26H59.5341V13.148H66.9321V15.38H62.2521V18.206H66.6081V20.438H62.2521V23.75H66.9321V26ZM81.0003 26H77.5443L71.9463 16.28H71.8743C71.8983 16.892 71.9223 17.504 71.9463 18.116C71.9823 18.728 72.0123 19.34 72.0363 19.952V26H69.6063V13.148H73.0443L78.6243 22.778H78.6783C78.6663 22.178 78.6483 21.584 78.6243 20.996C78.6003 20.408 78.5763 19.82 78.5523 19.232V13.148H81.0003V26ZM94.9049 19.448C94.9049 21.62 94.2869 23.258 93.0509 24.362C91.8269 25.454 90.1049 26 87.8849 26H84.2489V13.148H88.2809C89.6249 13.148 90.7889 13.388 91.7729 13.868C92.7689 14.348 93.5369 15.056 94.0769 15.992C94.6289 16.916 94.9049 18.068 94.9049 19.448ZM92.0789 19.52C92.0789 18.092 91.7669 17.048 91.1429 16.388C90.5189 15.716 89.6129 15.38 88.4249 15.38H86.9669V23.75H88.1369C90.7649 23.75 92.0789 22.34 92.0789 19.52Z" fill="#041820"/>
<path d="M101.335 16.064C102.643 16.064 103.675 16.454 104.431 17.234C105.199 18.014 105.583 19.1 105.583 20.492V21.644H99.1391C99.1631 22.532 99.4091 23.222 99.8771 23.714C100.345 24.194 100.993 24.434 101.821 24.434C102.445 24.434 103.009 24.374 103.513 24.254C104.017 24.122 104.533 23.936 105.061 23.696V25.514C104.581 25.742 104.083 25.91 103.567 26.018C103.051 26.126 102.433 26.18 101.713 26.18C100.765 26.18 99.9191 26 99.1751 25.64C98.4431 25.268 97.8671 24.71 97.4471 23.966C97.0391 23.222 96.8351 22.298 96.8351 21.194C96.8351 19.526 97.2491 18.254 98.0771 17.378C98.9051 16.502 99.9911 16.064 101.335 16.064ZM101.335 17.738C100.723 17.738 100.225 17.936 99.8411 18.332C99.4691 18.716 99.2531 19.292 99.1931 20.06H103.387C103.375 19.388 103.201 18.836 102.865 18.404C102.541 17.96 102.031 17.738 101.335 17.738ZM112.982 16.064C113.138 16.064 113.306 16.07 113.486 16.082C113.678 16.094 113.84 16.118 113.972 16.154L113.774 18.26C113.654 18.236 113.51 18.218 113.342 18.206C113.174 18.182 113.024 18.17 112.892 18.17C112.412 18.17 111.962 18.272 111.542 18.476C111.122 18.668 110.78 18.974 110.516 19.394C110.264 19.802 110.138 20.318 110.138 20.942V26H107.87V16.244H109.616L109.94 17.936H110.048C110.336 17.42 110.732 16.982 111.236 16.622C111.74 16.25 112.322 16.064 112.982 16.064Z" fill="#4D6DAE"/>
<path d="M23.2471 3.99172L21.0498 0.695781C20.76 0.261094 20.2721 0 19.7497 0H12.1094C11.2464 0 10.5469 0.699531 10.5469 1.5625V23.4375C10.5469 24.3005 11.2464 25 12.1094 25H38.4375C39.3005 25 40 24.3005 40 23.4375V6.25C40 5.38703 39.3005 4.6875 38.4375 4.6875H24.5472C24.0248 4.6875 23.5369 4.42641 23.2471 3.99172Z" fill="#6D8DC9"/>
<path d="M30.3516 9.375H20.1953C19.5481 9.375 19.0234 8.85031 19.0234 8.20312C19.0234 7.55594 19.5481 7.03125 20.1953 7.03125H30.3516C30.9988 7.03125 31.5234 7.55594 31.5234 8.20312C31.5234 8.85031 30.9988 9.375 30.3516 9.375Z" fill="#6180C0"/>
<path d="M27.8906 17.3438H15.2344V1.5625C15.2344 0.699531 15.9339 0 16.7969 0H12.1094C11.2464 0 10.5469 0.699531 10.5469 1.5625V23.4375C10.5469 24.3005 11.2464 25 12.1094 25H31.7969V21.25C31.7969 19.0961 30.0445 17.3438 27.8906 17.3438Z" fill="#6180C0"/>
<path d="M20.8613 14.6984L17.5467 11.3839L9.35094 19.5797C8.43563 20.495 8.43563 21.979 9.35094 22.8942C10.2663 23.8095 11.7502 23.8095 12.6655 22.8942L20.8613 14.6984Z" fill="#D3DCFB"/>
<path d="M17.5466 11.3839L12.5748 16.3558C13.4901 15.4405 14.9741 15.4405 15.8893 16.3558C16.8046 17.2711 16.8046 18.7551 15.8893 19.6703L20.8612 14.6984L17.5466 11.3839Z" fill="white"/>
<path d="M22.2781 9.1247L14.9512 9.72431C14.4867 9.76228 14.2796 10.3266 14.6091 10.656L21.5891 17.636C21.9185 17.9655 22.4828 17.7584 22.5208 17.2939L23.1204 9.96705C23.1598 9.4865 22.7587 9.08541 22.2781 9.1247V9.1247Z" fill="#D3DCFB"/>
<path d="M27.8906 19.6875H14.0003C13.4779 19.6875 12.99 19.4264 12.7002 18.9917L10.503 15.6958C10.2132 15.2611 9.72531 15 9.20289 15H0.630078C0.21875 16.5981 0 18.2735 0 20C0 31.0457 8.9543 40 20 40C23.4195 40 26.6381 39.1411 29.4531 37.6284V21.25C29.4531 20.387 28.7536 19.6875 27.8906 19.6875Z" fill="#FFB668"/>
<path d="M3.75508 15H0.630078C0.21875 16.5981 0 18.2735 0 20C0 31.0457 8.9543 40 20 40C23.4195 40 26.6381 39.1411 29.4531 37.6284H26.3834C13.8862 37.6284 3.75508 27.4973 3.75508 15V15Z" fill="#FEAC58"/>
<path d="M19.8047 26.5405H9.64844C9.00125 26.5405 8.47656 26.0158 8.47656 25.3686C8.47656 24.7214 9.00125 24.1967 9.64844 24.1967H19.8047C20.4519 24.1967 20.9766 24.7214 20.9766 25.3686C20.9766 26.0159 20.4519 26.5405 19.8047 26.5405Z" fill="#FEAC58"/>
<path d="M19.1388 25.3016L22.4533 28.6161L30.6491 20.4203C31.5644 19.505 31.5644 18.021 30.6491 17.1058C29.7338 16.1905 28.2498 16.1905 27.3345 17.1058L19.1388 25.3016Z" fill="white"/>
<path d="M22.4534 28.6161L27.4253 23.6442C26.51 24.5596 25.026 24.5596 24.1107 23.6442C23.1954 22.7289 23.1954 21.2449 24.1107 20.3297L19.1389 25.3016L22.4534 28.6161Z" fill="#D3DCFB"/>
<path d="M17.722 30.8753L25.0488 30.2757C25.5133 30.2377 25.7204 29.6734 25.391 29.344L18.411 22.364C18.0815 22.0345 17.5172 22.2416 17.4792 22.7061L16.8796 30.033C16.8403 30.5135 17.2413 30.9146 17.722 30.8753V30.8753Z" fill="white"/>
</svg>
